<?xml version="1.0" standalone="no"?><!DOCTYPE svg PUBLIC "-//W3C//DTD SVG 1.1//EN" "http://www.w3.org/Graphics/SVG/1.1/DTD/svg11.dtd"><svg t="1757574389477" class="icon" viewBox="0 0 1024 1024" version="1.1" xmlns="http://www.w3.org/2000/svg" p-id="14796" xmlns:xlink="http://www.w3.org/1999/xlink" width="200" height="200"><path d="M217.8 699.3h98.8c9.2 0 17.8 4.9 22.4 12.9l7.5 12.9h64.8L433 763l27.8-50.4c4.6-8.2 13.2-13.4 22.6-13.4H875V178.9H217.8v520.4z" fill="#91B4FF" p-id="14797"></path><path d="M402.2 898.9c-9.2 0-17.8-4.9-22.4-12.9L302 751.1H123.5c-14.3 0-25.9-11.6-25.9-25.9V612c0-14.3 11.6-25.9 25.9-25.9s25.9 11.6 25.9 25.9v87.4H317c9.2 0 17.8 4.9 22.4 12.9l62.3 108.1 59.5-107.7c4.6-8.2 13.2-13.4 22.6-13.4h391.6V178.9h-726V392c0 14.3-11.6 25.9-25.9 25.9S97.7 406.3 97.7 392V153c0-14.3 11.6-25.9 25.9-25.9h777.9c14.3 0 25.9 11.6 25.9 25.9v572.2c0 14.3-11.6 25.9-25.9 25.9H499.2l-74.3 134.5c-4.5 8.2-13.1 13.3-22.4 13.4-0.1-0.1-0.2-0.1-0.3-0.1z" fill="#3778FF" p-id="14798"></path><path d="M123.1 553.7c-14.3 0-25.9-11.6-25.9-25.9v-61.1c0-14.3 11.6-25.9 25.9-25.9s25.9 11.6 25.9 25.9v61.1c0 14.4-11.6 25.9-25.9 25.9zM596.9 329.1H268.5c-14.3 0-25.9-11.6-25.9-25.9 0-14.3 11.6-25.9 25.9-25.9H597c14.3 0 25.9 11.6 25.9 25.9-0.1 14.3-11.7 25.9-26 25.9zM755.7 458.4H268.5c-14.3 0-25.9-11.6-25.9-25.9 0-14.3 11.6-25.9 25.9-25.9h487.2c14.3 0 25.9 11.6 25.9 25.9-0.1 14.4-11.7 25.9-25.9 25.9zM755.7 587.8H268.5c-14.3 0-25.9-11.6-25.9-25.9s11.6-25.9 25.9-25.9h487.2c14.3 0 25.9 11.6 25.9 25.9s-11.7 25.9-25.9 25.9z" fill="#3778FF" p-id="14799"></path></svg>