<?xml version="1.0" standalone="no"?><!DOCTYPE svg PUBLIC "-//W3C//DTD SVG 1.1//EN" "http://www.w3.org/Graphics/SVG/1.1/DTD/svg11.dtd"><svg t="1757469969633" class="icon" viewBox="0 0 1024 1024" version="1.1" xmlns="http://www.w3.org/2000/svg" p-id="15348" xmlns:xlink="http://www.w3.org/1999/xlink" width="200" height="200"><path d="M818.217 770.13c25.597-30.29 46.422-64.031 62.111-100.694 21.328-49.84 32.143-102.809 32.143-157.436 0-54.047-10.594-106.497-31.486-155.893-20.172-47.692-49.042-90.516-85.809-127.283s-79.591-65.637-127.283-85.809C618.497 122.123 566.047 111.529 512 111.529s-106.497 10.594-155.893 31.486c-47.692 20.172-90.517 49.042-127.283 85.809s-65.637 79.591-85.809 127.283C122.123 405.503 111.529 457.953 111.529 512s10.594 106.497 31.486 155.893c20.172 47.692 49.042 90.516 85.809 127.283 36.767 36.767 79.591 65.637 127.283 85.809 49.396 20.893 101.846 31.486 155.893 31.486h359.231a37.001 37.001 0 0 0 26.163-63.163l-79.177-79.178zM485.504 323.186l35.882-12c19.376-6.481 40.344 3.975 46.825 23.354 6.48 19.379-3.976 40.344-23.354 46.825l-35.882 12a36.96 36.96 0 0 1-11.74 1.92c-15.478 0-29.905-9.788-35.085-25.275-6.481-19.378 3.975-40.343 23.354-46.824z m86.615 149.795l-33.082 148.09c12.283 1.718 23.42 9.571 28.779 21.758 8.227 18.706-0.269 40.539-18.975 48.765l-45.479 20a36.974 36.974 0 0 1-14.889 3.131 37.003 37.003 0 0 1-36.116-45.067l33.023-147.827c-13.507-0.965-25.984-9.336-31.546-22.69-7.857-18.864 1.065-40.525 19.929-48.382l48.018-20a37 37 0 0 1 50.338 42.222z" fill="#231815" p-id="15349"></path></svg>