<?xml version="1.0" standalone="no"?><!DOCTYPE svg PUBLIC "-//W3C//DTD SVG 1.1//EN" "http://www.w3.org/Graphics/SVG/1.1/DTD/svg11.dtd"><svg t="1757573497391" class="icon" viewBox="0 0 1170 1024" version="1.1" xmlns="http://www.w3.org/2000/svg" p-id="11970" xmlns:xlink="http://www.w3.org/1999/xlink" width="228.515625" height="200"><path d="M12.190476 0h1024v1024H12.190476z" fill="#909090" fill-opacity="0" p-id="11971"></path><path d="M97.52381 426.666667m42.666666 0l768 0q42.666667 0 42.666667 42.666666l0 426.666667q0 42.666667-42.666667 42.666667l-768 0q-42.666667 0-42.666666-42.666667l0-426.666667q0-42.666667 42.666666-42.666666Z" fill="#4A90E2" fill-opacity=".6" p-id="11972"></path><path d="M511.34781 795.989333L250.270476 497.621333A17.066667 17.066667 0 0 1 263.15581 469.333333h522.069333a17.066667 17.066667 0 0 1 12.885333 28.288L536.990476 795.989333a17.066667 17.066667 0 0 1-25.685333 0z" fill="#4A90E2" p-id="11973"></path><path d="M652.190476 469.333333H396.190476V128h256zM652.190476 85.333333H396.190476V42.666667h256z" fill="#4A90E2" p-id="11974"></path><path d="M468.72381 200.533333m42.666666 0a42.666667 42.666667 0 1 0-85.333333 0 42.666667 42.666667 0 1 0 85.333333 0Z" fill="#E02020" p-id="11975"></path></svg>