<?xml version="1.0" standalone="no"?><!DOCTYPE svg PUBLIC "-//W3C//DTD SVG 1.1//EN" "http://www.w3.org/Graphics/SVG/1.1/DTD/svg11.dtd"><svg t="1757415721872" class="icon" viewBox="0 0 1024 1024" version="1.1" xmlns="http://www.w3.org/2000/svg" p-id="9160" xmlns:xlink="http://www.w3.org/1999/xlink" width="200" height="200"><path d="M973.044169 704.017599a47.357395 47.357395 0 0 0-44.797536 45.437501v174.070426H102.692039v-173.430461A49.27729 49.27729 0 0 0 55.974608 704.017599c-21.758803 0-54.397008 20.478874-54.397008 45.437501v229.107399a42.877642 42.877642 0 0 0 39.677818 45.437501h942.028188a42.237677 42.237677 0 0 0 39.037853-45.437501v-229.107399a51.197184 51.197184 0 0 0-49.27729-45.437501zM469.39187 32.694522a35.198064 35.198064 0 0 0-6.399648-15.99912 47.357395 47.357395 0 0 0-38.397888-16.639085 51.197184 51.197184 0 0 0-39.037853 16.639085L72.613693 346.277275a46.717431 46.717431 0 0 0 0 58.236797 63.99648 63.99648 0 0 0 63.99648 6.399648l237.426942-252.786097v447.975361c0 22.398768 27.518486 37.117959 48.637325 37.117959s46.717431-14.71919 46.71743-37.117959v-447.975361c0.639965-78.715671 0.639965-120.313383 0-125.433101z" p-id="9161" fill="#666666"></path><path d="M577.545922 800.012319a30.078346 30.078346 0 0 0 6.399648 15.99912 45.437501 45.437501 0 0 0 38.397888 16.639085 51.197184 51.197184 0 0 0 41.597712-16.639085l307.82307-329.581873a46.077466 46.077466 0 0 0 0-57.596832 63.99648 63.99648 0 0 0-63.99648-6.399648l-238.706872 255.985921v-447.975361c0-22.398768-27.518486-37.757923-48.637325-37.757924S577.545922 207.404913 577.545922 229.803681v570.208638z" p-id="9162" fill="#666666"></path></svg>