<?xml version="1.0" standalone="no"?><!DOCTYPE svg PUBLIC "-//W3C//DTD SVG 1.1//EN" "http://www.w3.org/Graphics/SVG/1.1/DTD/svg11.dtd"><svg t="1757468913357" class="icon" viewBox="0 0 1024 1024" version="1.1" xmlns="http://www.w3.org/2000/svg" p-id="6123" xmlns:xlink="http://www.w3.org/1999/xlink" width="200" height="200"><path d="M343.253333 232.746667a31.104 31.104 0 0 0-30.122666 23.466666l-71.68 286.805334H387.84c35.754667 0 57.6 28.672 65.450667 51.370666a62.122667 62.122667 0 0 0 117.333333 0c7.850667-22.698667 29.696-51.370667 65.450667-51.370666h146.432l-71.68-286.805334a31.104 31.104 0 0 0-30.122667-23.466666h-337.493333z m448 372.352h-155.050666l-1.664 1.152a20.650667 20.650667 0 0 0-5.205334 8.448 124.16 124.16 0 0 1-234.666666 0 20.650667 20.650667 0 0 0-5.205334-8.448l-1.706666-1.152H232.789333v155.136c0 17.152 13.866667 31.018667 31.018667 31.018666h496.469333a31.061333 31.061333 0 0 0 31.018667-31.018666v-155.136zM252.928 241.152A93.098667 93.098667 0 0 1 343.253333 170.666667h337.493334c42.709333 0 79.957333 29.056 90.325333 70.485333L853.333333 570.24v189.994667A93.098667 93.098667 0 0 1 760.234667 853.333333H263.765333A93.098667 93.098667 0 0 1 170.666667 760.234667v-189.994667l82.261333-329.088z m103.936 84.650667c0-17.109333 13.866667-31.018667 31.018667-31.018667h248.234666a31.061333 31.061333 0 0 1 0 62.08H387.882667a31.061333 31.061333 0 0 1-31.018667-31.061333z m-31.061333 124.16c0-17.152 13.909333-31.061333 31.061333-31.061334h310.272a31.061333 31.061333 0 0 1 0 62.08H356.864a31.061333 31.061333 0 0 1-31.061333-31.061333z" fill="#000000" p-id="6124"></path></svg>