<?xml version="1.0" standalone="no"?><!DOCTYPE svg PUBLIC "-//W3C//DTD SVG 1.1//EN" "http://www.w3.org/Graphics/SVG/1.1/DTD/svg11.dtd"><svg t="1757469030630" class="icon" viewBox="0 0 1024 1024" version="1.1" xmlns="http://www.w3.org/2000/svg" p-id="13303" xmlns:xlink="http://www.w3.org/1999/xlink" width="200" height="200"><path d="M1024 20.8896H0V1024h1024z" fill="#FFFFFF" fill-opacity="0" p-id="13304"></path><path d="M501.6064 46.6944a38.4 38.4 0 0 1 21.1456 0l383.7952 109.824a38.4 38.4 0 0 1 27.8528 36.864v225.28c0 253.44-165.4272 478.3104-410.4192 558.2848a38.4 38.4 0 0 1-23.8592 0C255.0784 896.9728 89.6 672.1024 89.6 418.56V193.4336a38.4 38.4 0 0 1 27.8528-36.9152z m10.5472 76.8L166.4 222.3104v196.2496c0 215.1936 137.5744 406.9376 343.4496 480.512l2.2528 0.7168 2.1504-0.7168c201.1136-71.8848 337.0496-256.6144 343.1424-465.7664l0.2048-14.6432V222.3616l-345.4464-98.816z m240.64 225.792a38.4 38.4 0 0 1 3.1744 50.0224l-3.7376 4.3008-256 250.7776a38.4 38.4 0 0 1-49.5104 3.584l-4.2496-3.584-149.3504-146.2784A38.4 38.4 0 0 1 342.528 449.536l4.352 3.6864 122.4192 119.9104 229.1712-224.4096a38.4 38.4 0 0 1 54.272 0.5632z" fill="#0C0E12" p-id="13305"></path></svg>