<?xml version="1.0" standalone="no"?><!DOCTYPE svg PUBLIC "-//W3C//DTD SVG 1.1//EN" "http://www.w3.org/Graphics/SVG/1.1/DTD/svg11.dtd"><svg t="1757595749283" class="icon" viewBox="0 0 1024 1024" version="1.1" xmlns="http://www.w3.org/2000/svg" p-id="17784" xmlns:xlink="http://www.w3.org/1999/xlink" width="200" height="200"><path d="M874.692 2.052H149.205C68.233 2.052 2 68.284 2 149.258V874.84c0 80.876 66.233 147.108 147.205 147.108h725.584c80.974 0 147.211-66.232 147.211-147.206V149.258c-0.103-80.974-66.335-147.206-147.308-147.206z m-196.909 494.51c-48.307 0-91.73-20.614-121.81-53.583L407.47 554.133c9.761 17.327 15.139 37.35 15.139 58.563 0 12.652-1.893 24.701-5.477 36.156l139.537 65.632c16.433-23.001 43.424-37.94 73.902-37.94 50.198 0 90.836 40.63 90.836 90.829 0 50.198-40.638 90.838-90.836 90.838-50.199 0-90.831-40.64-90.831-90.838 0-7.967 0.992-15.738 2.985-23.208L403.087 678.53c-21.515 33.07-58.865 55.084-101.394 55.084-66.831 0-120.813-54.188-120.813-120.817 0-66.834 54.181-120.814 120.813-120.814 33.668 0 64.141 13.846 86.055 36.055l148.504-111.154c-15.042-24.899-23.708-54.181-23.708-85.554 0-91.234 74.004-165.233 165.238-165.233 91.23 0 165.234 73.901 165.234 165.233s-74.002 165.232-165.233 165.232z m0 0" fill="#FF7473" p-id="17785"></path></svg>